<?xml version="1.0" standalone="no"?><svg xmlns="http://www.w3.org/2000/svg" viewBox="0 0 1440 320"><path fill="#2c3e50" fill-opacity="1" d="M0,192L40,186.7C80,181,160,171,240,149.3C320,128,400,96,480,96C560,96,640,128,720,138.7C800,149,880,139,960,133.3C1040,128,1120,128,1200,138.7C1280,149,1360,171,1400,181.3L1440,192L1440,320L1400,320C1360,320,1280,320,1200,320C1120,320,1040,320,960,320C880,320,800,320,720,320C640,320,560,320,480,320C400,320,320,320,240,320C160,320,80,320,40,320L0,320Z"></path></svg>